<svg width="162" height="46" viewBox="0 0 162 46" fill="none" xmlns="http://www.w3.org/2000/svg">
<path d="M32.8203 20.3125V31H30.6523V18.3203H32.7617L32.8203 20.3125ZM36.7812 18.25L36.7695 20.2656C36.5898 20.2266 36.418 20.2031 36.2539 20.1953C36.0977 20.1797 35.918 20.1719 35.7148 20.1719C35.2148 20.1719 34.7734 20.25 34.3906 20.4062C34.0078 20.5625 33.6836 20.7812 33.418 21.0625C33.1523 21.3438 32.9414 21.6797 32.7852 22.0703C32.6367 22.4531 32.5391 22.875 32.4922 23.3359L31.8828 23.6875C31.8828 22.9219 31.957 22.2031 32.1055 21.5312C32.2617 20.8594 32.5 20.2656 32.8203 19.75C33.1406 19.2266 33.5469 18.8203 34.0391 18.5312C34.5391 18.2344 35.1328 18.0859 35.8203 18.0859C35.9766 18.0859 36.1562 18.1055 36.3594 18.1445C36.5625 18.1758 36.7031 18.2109 36.7812 18.25ZM46.332 13.9375L39.2188 32.4648H37.3555L44.4805 13.9375H46.332Z" fill="white"/>
<path d="M58.376 30.016C58.104 29.152 57.824 28.232 57.536 27.256C57.264 26.28 56.992 25.312 56.72 24.352C56.448 23.392 56.2 22.496 55.976 21.664C55.752 20.832 55.56 20.112 55.4 19.504C55.24 18.896 55.128 18.464 55.064 18.208L54.968 18.232C55.016 18.52 55.056 18.904 55.088 19.384C55.12 19.848 55.144 20.344 55.16 20.872C55.176 21.384 55.184 21.856 55.184 22.288V30.784H51.512V15.592H57.944C58.168 16.44 58.4 17.336 58.64 18.28C58.896 19.208 59.144 20.136 59.384 21.064C59.64 21.976 59.864 22.848 60.056 23.68C60.248 24.496 60.384 25.208 60.464 25.816H60.512C60.592 25.208 60.72 24.496 60.896 23.68C61.088 22.864 61.304 21.992 61.544 21.064C61.784 20.136 62.032 19.208 62.288 18.28C62.544 17.336 62.776 16.44 62.984 15.592H69.32V30.784H65.696V22.288C65.696 21.856 65.704 21.384 65.72 20.872C65.736 20.344 65.76 19.848 65.792 19.384C65.84 18.904 65.88 18.52 65.912 18.232L65.816 18.208C65.752 18.464 65.64 18.896 65.48 19.504C65.32 20.112 65.12 20.84 64.88 21.688C64.656 22.52 64.408 23.416 64.136 24.376C63.864 25.336 63.584 26.304 63.296 27.28C63.024 28.24 62.76 29.152 62.504 30.016H58.376ZM71.7959 23.176C71.7959 21.24 72.0119 19.704 72.4439 18.568C72.8919 17.432 73.6519 16.616 74.7239 16.12C75.8119 15.624 77.3239 15.376 79.2599 15.376C80.7159 15.376 81.9239 15.512 82.8839 15.784C83.8439 16.056 84.6039 16.496 85.1639 17.104C85.7239 17.712 86.1159 18.52 86.3399 19.528C86.5799 20.52 86.6999 21.736 86.6999 23.176C86.6999 24.632 86.5799 25.864 86.3399 26.872C86.1159 27.864 85.7239 28.664 85.1639 29.272C84.6039 29.88 83.8439 30.32 82.8839 30.592C81.9239 30.864 80.7159 31 79.2599 31C77.8039 31 76.5959 30.864 75.6359 30.592C74.6759 30.32 73.9159 29.88 73.3559 29.272C72.7959 28.664 72.3959 27.864 72.1559 26.872C71.9159 25.864 71.7959 24.632 71.7959 23.176ZM79.2599 27.64C80.2839 27.64 81.0519 27.512 81.5639 27.256C82.0759 27 82.4199 26.552 82.5959 25.912C82.7719 25.256 82.8599 24.344 82.8599 23.176C82.8599 22.024 82.7719 21.128 82.5959 20.488C82.4199 19.848 82.0759 19.4 81.5639 19.144C81.0519 18.872 80.2839 18.736 79.2599 18.736C78.2519 18.736 77.4839 18.872 76.9559 19.144C76.4439 19.4 76.0919 19.848 75.8999 20.488C75.7239 21.128 75.6359 22.024 75.6359 23.176C75.6359 24.344 75.7239 25.256 75.8999 25.912C76.0919 26.552 76.4439 27 76.9559 27.256C77.4839 27.512 78.2519 27.64 79.2599 27.64ZM102.952 15.616L98.2241 30.784H92.9441L88.4561 15.616H92.7521C93.0081 16.416 93.2801 17.328 93.5681 18.352C93.8561 19.376 94.1361 20.424 94.4081 21.496C94.6961 22.552 94.9441 23.544 95.1521 24.472C95.3761 25.384 95.5441 26.144 95.6561 26.752H95.7521C95.8641 26.144 96.0241 25.384 96.2321 24.472C96.4561 23.544 96.7041 22.552 96.9761 21.496C97.2641 20.44 97.5521 19.4 97.8401 18.376C98.1281 17.352 98.4001 16.432 98.6561 15.616H102.952ZM108.999 30.784H105.159V15.592H108.999V30.784ZM111.885 30.784V15.592H123.165V18.712H115.725V21.592H122.181V24.712H115.725V27.664H123.165V30.784H111.885ZM124.697 26.872C125.401 27.112 126.169 27.304 127.001 27.448C127.849 27.576 128.689 27.64 129.521 27.64C130.657 27.64 131.497 27.592 132.041 27.496C132.601 27.384 132.969 27.216 133.145 26.992C133.321 26.768 133.409 26.48 133.409 26.128C133.409 25.824 133.345 25.584 133.217 25.408C133.089 25.232 132.841 25.096 132.473 25C132.105 24.888 131.561 24.8 130.841 24.736L129.257 24.592C128.073 24.48 127.137 24.232 126.449 23.848C125.777 23.464 125.297 22.952 125.009 22.312C124.737 21.656 124.601 20.872 124.601 19.96C124.601 18.872 124.817 17.992 125.249 17.32C125.697 16.648 126.417 16.16 127.409 15.856C128.401 15.536 129.721 15.376 131.369 15.376C133.513 15.376 135.281 15.656 136.673 16.216L136.601 19.48L136.529 19.576C134.945 19.016 133.289 18.736 131.561 18.736C130.729 18.736 130.089 18.784 129.641 18.88C129.193 18.96 128.881 19.096 128.705 19.288C128.529 19.48 128.441 19.752 128.441 20.104C128.441 20.456 128.497 20.72 128.609 20.896C128.737 21.072 128.985 21.208 129.353 21.304C129.721 21.384 130.257 21.464 130.961 21.544L132.473 21.712C133.753 21.856 134.737 22.112 135.425 22.48C136.113 22.848 136.585 23.344 136.841 23.968C137.113 24.576 137.249 25.32 137.249 26.2C137.249 27.272 137.017 28.168 136.553 28.888C136.105 29.592 135.369 30.12 134.345 30.472C133.321 30.824 131.953 31 130.241 31C129.121 31 128.113 30.944 127.217 30.832C126.321 30.704 125.449 30.536 124.601 30.328V26.944L124.697 26.872Z" fill="#C5271B"/>
</svg>
